<svg width="91" height="28" viewBox="0 0 91 28" fill="none" xmlns="http://www.w3.org/2000/svg">
<path d="M9.36 5.328C9.95733 5.392 10.288 5.73333 10.352 6.352C10.3307 6.69333 10.1707 7.06667 9.872 7.472C9.01867 7.984 8.18667 8.50667 7.376 9.04C7.67467 9.488 7.952 9.97867 8.208 10.512C8.93333 12.176 9.31733 14.032 9.36 16.08C9.36 18.5333 8.96533 20.3787 8.176 21.616C7.152 23.1733 5.84 23.952 4.24 23.952C3.25867 23.952 2.36267 23.6213 1.552 22.96C0.848 22.2347 0.496 21.3173 0.496 20.208C0.496 19.184 0.794667 18.1067 1.392 16.976C2.032 15.9307 3.03467 14.992 4.4 14.16C5.36 13.584 6.128 13.2427 6.704 13.136C6.55467 12.5813 6.37333 12.048 6.16 11.536C5.968 11.0453 5.75467 10.5973 5.52 10.192C4.47467 10.8533 3.41867 11.5253 2.352 12.208C1.968 12.6133 1.59467 12.8267 1.232 12.848C0.634667 12.7627 0.304 12.4213 0.24 11.824C0.24 11.4187 0.368 11.0027 0.624 10.576C1.75467 9.76533 2.87467 9.008 3.984 8.304C3.89867 8.21867 3.84533 8.16533 3.824 8.144C3.184 7.61067 2.36267 7.30133 1.36 7.216C0.549333 7.152 0.133333 6.77867 0.112 6.096C0.133333 5.37067 0.592 4.99733 1.488 4.976C2.53333 4.976 3.52533 5.28533 4.464 5.904C4.976 6.26667 5.456 6.68267 5.904 7.152C6.69333 6.68267 7.472 6.24533 8.24 5.84C8.60267 5.49867 8.976 5.328 9.36 5.328ZM7.088 15.344C5.53067 16.0907 4.47467 16.7627 3.92 17.36C3.13067 18.32 2.736 19.2267 2.736 20.08C2.736 20.5493 2.87467 20.912 3.152 21.168C3.49333 21.5307 3.856 21.712 4.24 21.712C5.15733 21.712 5.84 21.2533 6.288 20.336C6.84267 19.3973 7.12 17.9787 7.12 16.08C7.12 15.824 7.10933 15.5787 7.088 15.344ZM17.616 0.079998C17.9573 0.079998 18.2987 0.261332 18.64 0.623999C19.0453 0.986666 19.3867 1.33867 19.664 1.68C20.0267 2.02133 20.2187 2.37333 20.24 2.736C20.4107 2.71467 20.592 2.704 20.784 2.704C22.64 2.704 24.1227 3.22667 25.232 4.272C26.32 5.27467 26.864 6.94933 26.864 9.296V11.408C26.864 13.712 26.192 15.2907 24.848 16.144C24.4427 16.3573 24.0267 16.5387 23.6 16.688C23.8987 16.8587 24.1867 17.0507 24.464 17.264C25.552 18.16 26.096 19.2693 26.096 20.592C26.096 21.9573 25.6907 23.1413 24.88 24.144C25.3707 24.208 25.8613 24.272 26.352 24.336C27.0347 24.4427 27.408 24.816 27.472 25.456C27.408 26.1813 26.9493 26.5547 26.096 26.576C25.328 26.576 24.24 26.384 22.832 26C21.232 27.0667 19.4613 27.6 17.52 27.6C15.0667 27.6 13.1573 27.024 11.792 25.872C10.5973 24.784 10 23.0133 10 20.56C10 17.616 10.8 12.7093 12.4 5.84C11.8453 5.79733 11.536 5.46667 11.472 4.848C11.4933 4.336 11.792 3.96266 12.368 3.728C13.9893 3.344 15.632 3.07733 17.296 2.928C17.168 2.77867 17.0613 2.66133 16.976 2.576C16.656 2.27733 16.496 1.81867 16.496 1.2C16.56 0.538665 16.9333 0.165332 17.616 0.079998ZM14.864 5.488C14.8427 6.02133 14.6187 7.01333 14.192 8.464C16.7307 8.48533 18.8747 8.61333 20.624 8.848C21.2427 8.99733 21.5733 9.328 21.616 9.84C21.5307 10.4587 21.072 10.7893 20.24 10.832C17.6587 10.7893 15.536 10.672 13.872 10.48C13.808 10.4587 13.7653 10.448 13.744 10.448C13.4667 11.7707 13.2213 12.9973 13.008 14.128C13.4133 14.2773 13.8827 14.4907 14.416 14.768C15.6533 15.152 16.88 15.344 18.096 15.344C20.3573 15.344 22.0213 15.0667 23.088 14.512C24.112 14.0427 24.624 12.9653 24.624 11.28C24.624 8.37867 24.3147 6.576 23.696 5.872C22.992 5.18933 21.9787 4.848 20.656 4.848C19.0773 4.848 17.1467 5.06133 14.864 5.488ZM12.624 16.432C12.368 18.2667 12.24 19.7707 12.24 20.944C12.24 22.3947 12.6347 23.4827 13.424 24.208C14.3627 25.04 15.6533 25.456 17.296 25.456C18.1707 25.456 19.0133 25.2853 19.824 24.944C18.6933 24.4533 17.8293 23.9093 17.232 23.312C16.4853 22.544 16.112 21.7227 16.112 20.848C16.112 19.696 16.592 18.64 17.552 17.68C17.6373 17.5947 17.7227 17.52 17.808 17.456C15.504 17.4347 13.776 17.0933 12.624 16.432ZM21.616 18.352C20.6773 18.352 19.8347 18.5973 19.088 19.088C18.5973 19.5147 18.352 20.1013 18.352 20.848C18.352 21.3813 18.9813 22 20.24 22.704C20.816 23.024 21.4667 23.2907 22.192 23.504C23.3013 22.5653 23.856 21.5947 23.856 20.592C23.856 19.9733 23.6427 19.4293 23.216 18.96C22.704 18.5547 22.1707 18.352 21.616 18.352ZM33.36 5.328C33.6373 5.328 33.8613 5.38133 34.032 5.488C35.312 4.82667 36.4853 4.48533 37.552 4.464H38.064C39.216 4.464 40.2507 4.93333 41.168 5.872C42.2133 7.00267 42.736 8.98667 42.736 11.824V12.976C42.736 14.7893 42.544 16.8907 42.16 19.28C41.8613 21.4773 41.4667 23.2053 40.976 24.464C40.7627 24.9547 40.432 25.2 39.984 25.2C39.3013 25.1573 38.928 24.8267 38.864 24.208C38.8853 23.9947 38.9707 23.6747 39.12 23.248C39.5893 21.6267 39.9413 19.696 40.176 17.456C40.3893 15.5573 40.496 14.1067 40.496 13.104C40.496 10.3093 40.1867 8.45333 39.568 7.536C39.1627 6.98133 38.544 6.704 37.712 6.704C37.2427 6.704 36.4213 6.97067 35.248 7.504C35.0347 7.61067 34.832 7.68533 34.64 7.728C34.6827 8.816 34.7253 9.904 34.768 10.992C34.8747 10.9707 34.992 10.96 35.12 10.96C35.2693 10.96 35.664 11.0133 36.304 11.12C37.0507 11.2267 37.488 11.3013 37.616 11.344C38.4053 11.6 38.8213 12.016 38.864 12.592C38.8 13.232 38.384 13.5627 37.616 13.584C37.2747 13.584 36.3573 13.456 34.864 13.2C34.9067 14.224 34.9387 15.2267 34.96 16.208H34.992C35.9733 16.2507 36.8053 16.3787 37.488 16.592C38.128 16.7413 38.4587 17.072 38.48 17.584C38.416 18.2027 37.9573 18.5333 37.104 18.576C36.272 18.5333 35.5787 18.4373 35.024 18.288C35.088 19.824 35.1413 21.3173 35.184 22.768C35.2053 23.408 35.2267 23.888 35.248 24.208C35.2053 24.912 34.9067 25.2853 34.352 25.328C33.6267 25.3067 33.168 24.976 32.976 24.336C32.6133 14.3733 32.4107 8.42133 32.368 6.48C32.3893 5.73333 32.72 5.34933 33.36 5.328ZM46.992 1.968C47.6107 1.98933 47.9413 2.32 47.984 2.96C47.9413 3.472 47.76 4.15467 47.44 5.008C47.2693 5.56267 47.0987 6.128 46.928 6.704H46.992C47.5467 6.704 48.848 6.75733 50.896 6.864C50.96 5.456 51.0347 3.99467 51.12 2.48C51.248 1.60533 51.664 1.14667 52.368 1.104C53.0293 1.12533 53.4027 1.584 53.488 2.48C53.4453 3.184 53.3813 4.67733 53.296 6.96C56.048 7.088 57.648 7.17333 58.096 7.216C58.9067 7.472 59.3227 7.888 59.344 8.464C59.28 9.168 58.832 9.54133 58 9.584C57.168 9.584 55.5573 9.53067 53.168 9.424C53.1467 9.78667 53.1253 10.16 53.104 10.544C53.04 12.08 52.976 13.6267 52.912 15.184C54.0853 15.1413 55.3547 15.1093 56.72 15.088C58.0853 15.1093 58.8 15.4827 58.864 16.208C58.8213 16.9547 58.4053 17.3707 57.616 17.456C55.76 17.4987 54.1707 17.552 52.848 17.616C52.784 19.8773 52.7413 22.16 52.72 24.464C52.72 24.5067 52.7093 24.5387 52.688 24.56C54.2453 24.5173 55.9307 24.4853 57.744 24.464C59.088 24.4853 59.792 24.8587 59.856 25.584C59.8133 26.3307 59.3973 26.7467 58.608 26.832C54.1493 26.8747 50.7787 26.9707 48.496 27.12C47.1093 27.2267 45.776 27.3013 44.496 27.344C43.5147 27.3013 43.0133 26.8853 42.992 26.096C42.992 25.456 43.4933 25.0827 44.496 24.976C45.968 24.8267 47.9413 24.7093 50.416 24.624C50.3947 24.4747 50.3733 24.336 50.352 24.208C50.352 22.3093 50.384 20.1653 50.448 17.776C50.1707 17.7973 49.904 17.8187 49.648 17.84C48.5387 17.968 47.4827 18.0533 46.48 18.096C45.52 18.0533 45.0187 17.6373 44.976 16.848C44.976 16.208 45.4773 15.8347 46.48 15.728C47.5253 15.5573 48.88 15.4187 50.544 15.312C50.5867 13.4133 50.6613 11.408 50.768 9.296C49.552 9.25333 48.208 9.18933 46.736 9.104C46.5653 9.08267 46.4373 9.05067 46.352 9.008C45.9893 10.5227 45.6587 12.1333 45.36 13.84C45.1893 14.6293 44.816 15.0453 44.24 15.088C43.4933 15.024 43.12 14.5653 43.12 13.712C43.12 12.6667 43.408 10.9387 43.984 8.528C44.8373 5.28533 45.5093 3.30133 46 2.576C46.2773 2.17067 46.608 1.968 46.992 1.968ZM78.224 2.096C78.9707 2.11733 79.344 2.448 79.344 3.088C79.344 3.64267 79.0133 4.016 78.352 4.208C76.4747 4.592 74.8 4.95467 73.328 5.296C73.3493 5.36 73.36 5.41333 73.36 5.456C73.5307 7.61067 73.6907 9.72267 73.84 11.792C77.0827 12.0053 78.96 12.144 79.472 12.208C80.2613 12.464 80.6773 12.88 80.72 13.456C80.656 14.16 80.1973 14.5333 79.344 14.576C78.4053 14.576 76.6347 14.4907 74.032 14.32C74.16 15.9413 74.288 17.52 74.416 19.056C75.632 19.3333 77.6587 20.016 80.496 21.104C80.9013 21.4667 81.104 21.8827 81.104 22.352C81.04 22.928 80.7093 23.2587 80.112 23.344C79.6213 23.344 79.1093 23.2587 78.576 23.088C77.36 22.7253 76.048 22.288 74.64 21.776C74.704 22.6293 74.768 23.4613 74.832 24.272C74.896 25.0187 74.9493 25.584 74.992 25.968C74.9493 26.672 74.576 27.0453 73.872 27.088C73.1253 27.0667 72.6667 26.6933 72.496 25.968C72.304 23.3227 72.1227 20.944 71.952 18.832C70.1813 20.7307 68.3573 22.736 66.48 24.848C66.096 25.1467 65.7227 25.3067 65.36 25.328C64.8267 25.264 64.5387 24.9333 64.496 24.336C64.496 23.9733 64.6133 23.6 64.848 23.216C67.1093 20.4427 69.36 18.0213 71.6 15.952C71.6427 15.9093 71.6853 15.8773 71.728 15.856C71.6853 15.2587 71.6427 14.6933 71.6 14.16C69.9147 14.032 68.0053 13.8827 65.872 13.712C64.976 13.5627 64.5173 13.1893 64.496 12.592C64.5387 11.7813 65.072 11.3653 66.096 11.344C66.8427 11.344 68.6133 11.44 71.408 11.632C71.216 8.90133 71.088 6.97067 71.024 5.84C70.128 6.07467 69.3387 6.288 68.656 6.48C67.504 6.8 66.6507 6.96 66.096 6.96C65.392 6.96 65.0187 6.62933 64.976 5.968C65.0187 5.34933 65.36 4.93333 66 4.72C72.3573 2.992 76.432 2.11733 78.224 2.096ZM82.736 6.224C83.5467 6.224 84.0053 6.64 84.112 7.472C84.5173 12.3787 84.9333 17.1147 85.36 21.68C85.424 22.2347 85.4667 22.6613 85.488 22.96C85.4453 23.664 85.072 24.0373 84.368 24.08C83.6213 24.0587 83.1627 23.6853 82.992 22.96C82.2453 14.256 81.8293 9.05067 81.744 7.344C81.7653 6.61867 82.096 6.24533 82.736 6.224ZM89.36 1.84C89.936 1.84 90.3093 2.21333 90.48 2.96V25.712C90.4373 26.8427 90.1067 27.4293 89.488 27.472C88.72 27.4293 88.304 27.0133 88.24 26.224C88.2613 19.9947 88.2827 15.3013 88.304 12.144C88.3253 8.92267 88.336 6.85333 88.336 5.936C88.3573 4.528 88.368 3.49333 88.368 2.832C88.368 2.17067 88.6987 1.84 89.36 1.84Z" fill="white"/>
</svg>
