<svg width="123" height="29" viewBox="0 0 123 29" fill="none" xmlns="http://www.w3.org/2000/svg">
<path d="M10.736 0.591999C11.2267 0.591999 11.6427 0.762665 11.984 1.104C13.904 4.92267 15.312 8.432 16.208 11.632C17.0613 14.768 17.488 18.1707 17.488 21.84C17.488 24.016 17.168 25.5947 16.528 26.576C15.632 27.7493 14.576 28.336 13.36 28.336C12.528 28.336 11.856 28.208 11.344 27.952C10.896 27.76 10.6507 27.344 10.608 26.704C10.6933 26.0427 11.0667 25.6693 11.728 25.584C11.9627 25.584 12.2293 25.648 12.528 25.776C13.04 25.904 13.36 25.968 13.488 25.968C13.9787 25.968 14.352 25.6587 14.608 25.04C14.9493 24.4213 15.12 23.3973 15.12 21.968C15.12 19.0453 14.8 16.2613 14.16 13.616C13.5627 10.9493 12.1333 7.312 9.872 2.704C9.70133 2.36267 9.616 1.98933 9.616 1.584C9.68 0.986666 10.0533 0.656 10.736 0.591999ZM4.72 8.848C5.36 8.86933 5.70133 9.2 5.744 9.84C5.68 10.352 5.44533 11.0453 5.04 11.92C3.97333 14.5013 3.07733 17.52 2.352 20.976C2.18133 21.7653 1.808 22.1813 1.232 22.224C0.485333 22.16 0.112 21.7013 0.112 20.848C0.112 19.76 0.485333 17.9893 1.232 15.536C2.29867 12.2293 3.13067 10.2027 3.728 9.456C4.02667 9.05067 4.35733 8.848 4.72 8.848ZM21.232 7.824C22.0853 7.824 24.2507 10.2453 27.728 15.088C28.1333 15.4507 28.3467 15.8667 28.368 16.336C28.2827 16.9333 27.9413 17.264 27.344 17.328C26.896 17.328 26.416 17.0507 25.904 16.496C24.368 14.8107 22.64 12.6773 20.72 10.096C20.336 9.73333 20.1333 9.31733 20.112 8.848C20.176 8.208 20.5493 7.86667 21.232 7.824ZM49.104 1.584C51.3227 1.584 53.1253 2.32 54.512 3.792C55.8347 5.34933 56.496 7.17333 56.496 9.264V10.096C56.496 12.0373 56.1653 14.6293 55.504 17.872C54.8427 20.8373 54.1813 23.1733 53.52 24.88C54.3307 24.8587 55.152 24.848 55.984 24.848C57.264 24.8693 57.936 25.2427 58 25.968C57.9573 26.6507 57.5733 27.024 56.848 27.088C49.808 27.1307 44.4747 27.2587 40.848 27.472C38.6293 27.6 36.5067 27.6853 34.48 27.728C33.6053 27.6853 33.1467 27.2693 33.104 26.48C33.104 25.9253 33.6053 25.584 34.608 25.456C35.8667 25.3493 37.3707 25.264 39.12 25.2C39.1413 23.0667 39.344 19.856 39.728 15.568C38.1067 15.504 36.4 15.4293 34.608 15.344C33.7333 15.1307 33.2747 14.672 33.232 13.968C33.3173 13.3707 33.7333 13.04 34.48 12.976C35.1413 12.976 36.5173 13.0293 38.608 13.136C39.0773 13.1573 39.5253 13.1787 39.952 13.2C40.208 10.6187 40.5067 7.76 40.848 4.624C39.824 4.79467 38.768 4.98667 37.68 5.2C37.3813 5.28533 37.104 5.328 36.848 5.328C36.1653 5.28533 35.792 4.99733 35.728 4.464C35.728 3.93067 36.0267 3.51467 36.624 3.216C37.52 2.93867 39.056 2.61867 41.232 2.256C43.5787 1.808 46.032 1.584 48.592 1.584H49.104ZM41.296 25.104C44.0053 25.0187 47.1733 24.9547 50.8 24.912C50.864 24.7413 50.928 24.5387 50.992 24.304C51.952 21.68 52.688 18.9813 53.2 16.208C52.8373 16.1867 52.3787 16.1653 51.824 16.144C49.1787 15.9947 46 15.8453 42.288 15.696C42.032 18.448 41.7013 21.584 41.296 25.104ZM42.512 13.328C48.592 13.648 52.2933 13.8507 53.616 13.936C53.872 12.2507 54 10.8213 54 9.648C54 7.83467 53.552 6.45867 52.656 5.52C51.6533 4.38933 50.2987 3.824 48.592 3.824C47.2907 3.824 45.9253 3.92 44.496 4.112C44.0693 4.15467 43.6427 4.208 43.216 4.272C43.152 6.17067 42.9173 9.18933 42.512 13.328ZM65.36 5.328C65.6373 5.328 65.8613 5.38133 66.032 5.488C67.312 4.82667 68.4853 4.48533 69.552 4.464H70.064C71.216 4.464 72.2507 4.93333 73.168 5.872C74.2133 7.00267 74.736 8.98667 74.736 11.824V12.976C74.736 14.7893 74.544 16.8907 74.16 19.28C73.8613 21.4773 73.4667 23.2053 72.976 24.464C72.7627 24.9547 72.432 25.2 71.984 25.2C71.3013 25.1573 70.928 24.8267 70.864 24.208C70.8853 23.9947 70.9707 23.6747 71.12 23.248C71.5893 21.6267 71.9413 19.696 72.176 17.456C72.3893 15.5573 72.496 14.1067 72.496 13.104C72.496 10.3093 72.1867 8.45333 71.568 7.536C71.1627 6.98133 70.544 6.704 69.712 6.704C69.2427 6.704 68.4213 6.97067 67.248 7.504C67.0347 7.61067 66.832 7.68533 66.64 7.728C66.6827 8.816 66.7253 9.904 66.768 10.992C66.8747 10.9707 66.992 10.96 67.12 10.96C67.2693 10.96 67.664 11.0133 68.304 11.12C69.0507 11.2267 69.488 11.3013 69.616 11.344C70.4053 11.6 70.8213 12.016 70.864 12.592C70.8 13.232 70.384 13.5627 69.616 13.584C69.2747 13.584 68.3573 13.456 66.864 13.2C66.9067 14.224 66.9387 15.2267 66.96 16.208H66.992C67.9733 16.2507 68.8053 16.3787 69.488 16.592C70.128 16.7413 70.4587 17.072 70.48 17.584C70.416 18.2027 69.9573 18.5333 69.104 18.576C68.272 18.5333 67.5787 18.4373 67.024 18.288C67.088 19.824 67.1413 21.3173 67.184 22.768C67.2053 23.408 67.2267 23.888 67.248 24.208C67.2053 24.912 66.9067 25.2853 66.352 25.328C65.6267 25.3067 65.168 24.976 64.976 24.336C64.6133 14.3733 64.4107 8.42133 64.368 6.48C64.3893 5.73333 64.72 5.34933 65.36 5.328ZM78.992 1.968C79.6107 1.98933 79.9413 2.32 79.984 2.96C79.9413 3.472 79.76 4.15467 79.44 5.008C79.2693 5.56267 79.0987 6.128 78.928 6.704H78.992C79.5467 6.704 80.848 6.75733 82.896 6.864C82.96 5.456 83.0347 3.99467 83.12 2.48C83.248 1.60533 83.664 1.14667 84.368 1.104C85.0293 1.12533 85.4027 1.584 85.488 2.48C85.4453 3.184 85.3813 4.67733 85.296 6.96C88.048 7.088 89.648 7.17333 90.096 7.216C90.9067 7.472 91.3227 7.888 91.344 8.464C91.28 9.168 90.832 9.54133 90 9.584C89.168 9.584 87.5573 9.53067 85.168 9.424C85.1467 9.78667 85.1253 10.16 85.104 10.544C85.04 12.08 84.976 13.6267 84.912 15.184C86.0853 15.1413 87.3547 15.1093 88.72 15.088C90.0853 15.1093 90.8 15.4827 90.864 16.208C90.8213 16.9547 90.4053 17.3707 89.616 17.456C87.76 17.4987 86.1707 17.552 84.848 17.616C84.784 19.8773 84.7413 22.16 84.72 24.464C84.72 24.5067 84.7093 24.5387 84.688 24.56C86.2453 24.5173 87.9307 24.4853 89.744 24.464C91.088 24.4853 91.792 24.8587 91.856 25.584C91.8133 26.3307 91.3973 26.7467 90.608 26.832C86.1493 26.8747 82.7787 26.9707 80.496 27.12C79.1093 27.2267 77.776 27.3013 76.496 27.344C75.5147 27.3013 75.0133 26.8853 74.992 26.096C74.992 25.456 75.4933 25.0827 76.496 24.976C77.968 24.8267 79.9413 24.7093 82.416 24.624C82.3947 24.4747 82.3733 24.336 82.352 24.208C82.352 22.3093 82.384 20.1653 82.448 17.776C82.1707 17.7973 81.904 17.8187 81.648 17.84C80.5387 17.968 79.4827 18.0533 78.48 18.096C77.52 18.0533 77.0187 17.6373 76.976 16.848C76.976 16.208 77.4773 15.8347 78.48 15.728C79.5253 15.5573 80.88 15.4187 82.544 15.312C82.5867 13.4133 82.6613 11.408 82.768 9.296C81.552 9.25333 80.208 9.18933 78.736 9.104C78.5653 9.08267 78.4373 9.05067 78.352 9.008C77.9893 10.5227 77.6587 12.1333 77.36 13.84C77.1893 14.6293 76.816 15.0453 76.24 15.088C75.4933 15.024 75.12 14.5653 75.12 13.712C75.12 12.6667 75.408 10.9387 75.984 8.528C76.8373 5.28533 77.5093 3.30133 78 2.576C78.2773 2.17067 78.608 1.968 78.992 1.968ZM110.224 2.096C110.971 2.11733 111.344 2.448 111.344 3.088C111.344 3.64267 111.013 4.016 110.352 4.208C108.475 4.592 106.8 4.95467 105.328 5.296C105.349 5.36 105.36 5.41333 105.36 5.456C105.531 7.61067 105.691 9.72267 105.84 11.792C109.083 12.0053 110.96 12.144 111.472 12.208C112.261 12.464 112.677 12.88 112.72 13.456C112.656 14.16 112.197 14.5333 111.344 14.576C110.405 14.576 108.635 14.4907 106.032 14.32C106.16 15.9413 106.288 17.52 106.416 19.056C107.632 19.3333 109.659 20.016 112.496 21.104C112.901 21.4667 113.104 21.8827 113.104 22.352C113.04 22.928 112.709 23.2587 112.112 23.344C111.621 23.344 111.109 23.2587 110.576 23.088C109.36 22.7253 108.048 22.288 106.64 21.776C106.704 22.6293 106.768 23.4613 106.832 24.272C106.896 25.0187 106.949 25.584 106.992 25.968C106.949 26.672 106.576 27.0453 105.872 27.088C105.125 27.0667 104.667 26.6933 104.496 25.968C104.304 23.3227 104.123 20.944 103.952 18.832C102.181 20.7307 100.357 22.736 98.48 24.848C98.096 25.1467 97.7227 25.3067 97.36 25.328C96.8267 25.264 96.5387 24.9333 96.496 24.336C96.496 23.9733 96.6133 23.6 96.848 23.216C99.1093 20.4427 101.36 18.0213 103.6 15.952C103.643 15.9093 103.685 15.8773 103.728 15.856C103.685 15.2587 103.643 14.6933 103.6 14.16C101.915 14.032 100.005 13.8827 97.872 13.712C96.976 13.5627 96.5173 13.1893 96.496 12.592C96.5387 11.7813 97.072 11.3653 98.096 11.344C98.8427 11.344 100.613 11.44 103.408 11.632C103.216 8.90133 103.088 6.97067 103.024 5.84C102.128 6.07467 101.339 6.288 100.656 6.48C99.504 6.8 98.6507 6.96 98.096 6.96C97.392 6.96 97.0187 6.62933 96.976 5.968C97.0187 5.34933 97.36 4.93333 98 4.72C104.357 2.992 108.432 2.11733 110.224 2.096ZM114.736 6.224C115.547 6.224 116.005 6.64 116.112 7.472C116.517 12.3787 116.933 17.1147 117.36 21.68C117.424 22.2347 117.467 22.6613 117.488 22.96C117.445 23.664 117.072 24.0373 116.368 24.08C115.621 24.0587 115.163 23.6853 114.992 22.96C114.245 14.256 113.829 9.05067 113.744 7.344C113.765 6.61867 114.096 6.24533 114.736 6.224ZM121.36 1.84C121.936 1.84 122.309 2.21333 122.48 2.96V25.712C122.437 26.8427 122.107 27.4293 121.488 27.472C120.72 27.4293 120.304 27.0133 120.24 26.224C120.261 19.9947 120.283 15.3013 120.304 12.144C120.325 8.92267 120.336 6.85333 120.336 5.936C120.357 4.528 120.368 3.49333 120.368 2.832C120.368 2.17067 120.699 1.84 121.36 1.84Z" fill="white"/>
</svg>
