<svg width="77" height="18" viewBox="0 0 77 18" fill="none" xmlns="http://www.w3.org/2000/svg">
<path d="M15.48 0.819999C16.2667 0.846666 16.68 1.08 16.72 1.52C16.7067 1.94667 16.4733 2.18 16.02 2.22C13.7133 2.24667 11.72 2.28 10.04 2.32C10.1067 2.44 10.1467 2.59333 10.16 2.78C10.1333 3.42 10.0333 5.1 9.86 7.82C9.82 8.75333 9.78 9.7 9.74 10.66C11.58 10.58 13.32 10.48 14.96 10.36C15.6 10.3067 16.16 10.28 16.64 10.28C17.16 10.2933 17.42 10.5 17.42 10.9C17.4067 11.2733 17.2 11.5067 16.8 11.6C15.7067 11.72 13.42 11.8733 9.94 12.06C9.86 12.06 9.78 12.0667 9.7 12.08C9.66 13.5333 9.63333 15.0133 9.62 16.52C9.55333 17.0267 9.32 17.2867 8.92 17.3C8.49333 17.2733 8.25333 16.9867 8.2 16.44C8.2 15.1867 8.22667 13.7533 8.28 12.14C6.22667 12.2333 4.06667 12.2867 1.8 12.3C1.41333 12.3 1.12 12.24 0.92 12.12C0.733333 12.0133 0.64 11.7867 0.64 11.44C0.653333 11.1067 0.886667 10.9267 1.34 10.9C3.82 10.86 6.15333 10.8 8.34 10.72C8.43333 8.4 8.57333 5.75333 8.76 2.78C8.78667 2.59333 8.83333 2.44667 8.9 2.34C7.76667 2.38 6.78667 2.42 5.96 2.46C4.57333 2.54 3.24 2.59333 1.96 2.62C1.4 2.59333 1.11333 2.33333 1.1 1.84C1.1 1.49333 1.41333 1.28667 2.04 1.22C4.76 0.993333 9.24 0.859999 15.48 0.819999ZM2.42 3.8C2.86 3.81333 3.14667 3.96667 3.28 4.26C3.53333 5.36667 3.84 6.36 4.2 7.24C4.41333 7.66667 4.52667 8.02667 4.54 8.32C4.51333 8.76 4.25333 8.99333 3.76 9.02C3.44 9.00667 3.18 8.85333 2.98 8.56C2.19333 6.57333 1.8 5.22 1.8 4.5C1.82667 4.06 2.03333 3.82667 2.42 3.8ZM16.1 3.72C16.4733 3.76 16.68 3.96667 16.72 4.34C16.7067 4.55333 16.6067 4.78667 16.42 5.04C15.7667 6.24 15.0867 7.54 14.38 8.94C14.1267 9.19333 13.8933 9.32667 13.68 9.34C13.3067 9.28667 13.1 9.08 13.06 8.72C13.06 8.45333 13.1333 8.19333 13.28 7.94C13.9867 6.43333 14.6933 5.12667 15.4 4.02C15.6267 3.82 15.86 3.72 16.1 3.72ZM31.44 0.579999C33.1733 0.579999 34.4667 0.82 35.32 1.3C36.1467 1.78 36.56 2.67333 36.56 3.98C36.56 5.31333 36.16 6.26667 35.36 6.84C34.5733 7.30667 33.4933 7.54 32.12 7.54C31.9467 7.54 31.78 7.54 31.62 7.54C31.6333 7.59333 31.64 7.64667 31.64 7.7C31.64 8.42 31.68 9.06667 31.76 9.64C32.88 9.6 34.04 9.58 35.24 9.58C36.1733 9.64667 36.64 9.90667 36.64 10.36C36.6133 10.7333 36.3533 10.94 35.86 10.98C34.4467 10.98 33.1667 11 32.02 11.04C32.1533 11.4533 32.3067 11.8133 32.48 12.12C33.0267 13.24 33.7533 14.0733 34.66 14.62C35.1133 14.9267 35.8533 15.22 36.88 15.5C37.1867 15.6333 37.34 15.8733 37.34 16.22C37.3 16.58 37.0933 16.7867 36.72 16.84C36.2267 16.84 35.7333 16.7467 35.24 16.56C34.2667 16.1733 33.42 15.6333 32.7 14.94C31.9133 14.1667 31.3133 13.2067 30.9 12.06C30.7933 11.7533 30.7067 11.4267 30.64 11.08C29.8533 11.12 29.14 11.1667 28.5 11.22C26.8333 11.3533 25.68 11.4733 25.04 11.58C24.6667 11.6467 24.3933 11.68 24.22 11.68C23.74 11.68 23.48 11.4733 23.44 11.06C23.4667 10.66 23.7267 10.4 24.22 10.28C25.5667 10.08 27.16 9.92 29 9.8C29.4667 9.76 29.9333 9.72667 30.4 9.7C30.32 9.12667 30.2667 8.51333 30.24 7.86C30.24 7.72667 30.2467 7.62 30.26 7.54C26.0867 7.51333 23.6067 7.42667 22.82 7.28C22.74 7.85333 22.6733 8.36667 22.62 8.82C22.4867 9.86 22.42 10.8 22.42 11.64C22.42 12.92 22.6 13.8733 22.96 14.5C23.4133 15.22 24.0933 15.58 25 15.58C25.8533 15.58 27.1933 15.1867 29.02 14.4C29.1933 14.3333 29.3133 14.2867 29.38 14.26C29.82 14.2733 30.0533 14.48 30.08 14.88C30.04 15.2667 29.86 15.5267 29.54 15.66C28.9667 16.06 28.26 16.3733 27.42 16.6C26.6333 16.8533 25.9067 16.9867 25.24 17H24.9C23.7133 17 22.7867 16.6267 22.12 15.88C21.3867 14.9733 21.02 13.6133 21.02 11.8V11.26C21.0333 10.2467 21.1333 9.03333 21.32 7.62C21.4933 6.3 21.82 4.58 22.3 2.46H22.28C21.7067 2.43333 21.3933 2.2 21.34 1.76C21.38 1.42667 21.5867 1.19333 21.96 1.06C23.0667 0.78 26.2267 0.62 31.44 0.579999ZM23.8 2.34C23.7733 2.44667 23.7333 2.54 23.68 2.62C23.44 3.78 23.24 4.82 23.08 5.74C23.9333 5.75333 25.1133 5.86 26.62 6.06C28.2867 6.11333 29.9867 6.14 31.72 6.14C32.9733 6.14 33.8667 5.99333 34.4 5.7C34.8 5.47333 35 4.9 35 3.98C35 3.1 34.7667 2.58 34.3 2.42C33.94 2.14 33.04 2 31.6 2C29.3067 2 27.0067 2.07333 24.7 2.22C24.3667 2.27333 24.0667 2.31333 23.8 2.34ZM41.1 3.08C41.2733 3.08 41.4133 3.11333 41.52 3.18C42.32 2.76667 43.0533 2.55333 43.72 2.54H44.04C44.76 2.54 45.4067 2.83333 45.98 3.42C46.6333 4.12667 46.96 5.36667 46.96 7.14V7.86C46.96 8.99333 46.84 10.3067 46.6 11.8C46.4133 13.1733 46.1667 14.2533 45.86 15.04C45.7267 15.3467 45.52 15.5 45.24 15.5C44.8133 15.4733 44.58 15.2667 44.54 14.88C44.5533 14.7467 44.6067 14.5467 44.7 14.28C44.9933 13.2667 45.2133 12.06 45.36 10.66C45.4933 9.47333 45.56 8.56667 45.56 7.94C45.56 6.19333 45.3667 5.03333 44.98 4.46C44.7267 4.11333 44.34 3.94 43.82 3.94C43.5267 3.94 43.0133 4.10667 42.28 4.44C42.1467 4.50667 42.02 4.55333 41.9 4.58C41.9267 5.26 41.9533 5.94 41.98 6.62C42.0467 6.60667 42.12 6.6 42.2 6.6C42.2933 6.6 42.54 6.63333 42.94 6.7C43.4067 6.76667 43.68 6.81333 43.76 6.84C44.2533 7 44.5133 7.26 44.54 7.62C44.5 8.02 44.24 8.22667 43.76 8.24C43.5467 8.24 42.9733 8.16 42.04 8C42.0667 8.64 42.0867 9.26667 42.1 9.88H42.12C42.7333 9.90667 43.2533 9.98667 43.68 10.12C44.08 10.2133 44.2867 10.42 44.3 10.74C44.26 11.1267 43.9733 11.3333 43.44 11.36C42.92 11.3333 42.4867 11.2733 42.14 11.18C42.18 12.14 42.2133 13.0733 42.24 13.98C42.2533 14.38 42.2667 14.68 42.28 14.88C42.2533 15.32 42.0667 15.5533 41.72 15.58C41.2667 15.5667 40.98 15.36 40.86 14.96C40.6333 8.73333 40.5067 5.01333 40.48 3.8C40.4933 3.33333 40.7 3.09333 41.1 3.08ZM49.62 0.979999C50.0067 0.993332 50.2133 1.2 50.24 1.6C50.2133 1.92 50.1 2.34667 49.9 2.88C49.7933 3.22667 49.6867 3.58 49.58 3.94H49.62C49.9667 3.94 50.78 3.97333 52.06 4.04C52.1 3.16 52.1467 2.24667 52.2 1.3C52.28 0.753333 52.54 0.466666 52.98 0.439999C53.3933 0.453333 53.6267 0.74 53.68 1.3C53.6533 1.74 53.6133 2.67333 53.56 4.1C55.28 4.18 56.28 4.23333 56.56 4.26C57.0667 4.42 57.3267 4.68 57.34 5.04C57.3 5.48 57.02 5.71333 56.5 5.74C55.98 5.74 54.9733 5.70667 53.48 5.64C53.4667 5.86667 53.4533 6.1 53.44 6.34C53.4 7.3 53.36 8.26667 53.32 9.24C54.0533 9.21333 54.8467 9.19333 55.7 9.18C56.5533 9.19333 57 9.42667 57.04 9.88C57.0133 10.3467 56.7533 10.6067 56.26 10.66C55.1 10.6867 54.1067 10.72 53.28 10.76C53.24 12.1733 53.2133 13.6 53.2 15.04C53.2 15.0667 53.1933 15.0867 53.18 15.1C54.1533 15.0733 55.2067 15.0533 56.34 15.04C57.18 15.0533 57.62 15.2867 57.66 15.74C57.6333 16.2067 57.3733 16.4667 56.88 16.52C54.0933 16.5467 51.9867 16.6067 50.56 16.7C49.6933 16.7667 48.86 16.8133 48.06 16.84C47.4467 16.8133 47.1333 16.5533 47.12 16.06C47.12 15.66 47.4333 15.4267 48.06 15.36C48.98 15.2667 50.2133 15.1933 51.76 15.14C51.7467 15.0467 51.7333 14.96 51.72 14.88C51.72 13.6933 51.74 12.3533 51.78 10.86C51.6067 10.8733 51.44 10.8867 51.28 10.9C50.5867 10.98 49.9267 11.0333 49.3 11.06C48.7 11.0333 48.3867 10.7733 48.36 10.28C48.36 9.88 48.6733 9.64667 49.3 9.58C49.9533 9.47333 50.8 9.38667 51.84 9.32C51.8667 8.13333 51.9133 6.88 51.98 5.56C51.22 5.53333 50.38 5.49333 49.46 5.44C49.3533 5.42667 49.2733 5.40667 49.22 5.38C48.9933 6.32667 48.7867 7.33333 48.6 8.4C48.4933 8.89333 48.26 9.15333 47.9 9.18C47.4333 9.14 47.2 8.85333 47.2 8.32C47.2 7.66667 47.38 6.58667 47.74 5.08C48.2733 3.05333 48.6933 1.81333 49 1.36C49.1733 1.10667 49.38 0.979999 49.62 0.979999ZM69.14 1.06C69.6067 1.07333 69.84 1.28 69.84 1.68C69.84 2.02667 69.6333 2.26 69.22 2.38C68.0467 2.62 67 2.84667 66.08 3.06C66.0933 3.1 66.1 3.13333 66.1 3.16C66.2067 4.50667 66.3067 5.82667 66.4 7.12C68.4267 7.25333 69.6 7.34 69.92 7.38C70.4133 7.54 70.6733 7.8 70.7 8.16C70.66 8.6 70.3733 8.83333 69.84 8.86C69.2533 8.86 68.1467 8.80667 66.52 8.7C66.6 9.71333 66.68 10.7 66.76 11.66C67.52 11.8333 68.7867 12.26 70.56 12.94C70.8133 13.1667 70.94 13.4267 70.94 13.72C70.9 14.08 70.6933 14.2867 70.32 14.34C70.0133 14.34 69.6933 14.2867 69.36 14.18C68.6 13.9533 67.78 13.68 66.9 13.36C66.94 13.8933 66.98 14.4133 67.02 14.92C67.06 15.3867 67.0933 15.74 67.12 15.98C67.0933 16.42 66.86 16.6533 66.42 16.68C65.9533 16.6667 65.6667 16.4333 65.56 15.98C65.44 14.3267 65.3267 12.84 65.22 11.52C64.1133 12.7067 62.9733 13.96 61.8 15.28C61.56 15.4667 61.3267 15.5667 61.1 15.58C60.7667 15.54 60.5867 15.3333 60.56 14.96C60.56 14.7333 60.6333 14.5 60.78 14.26C62.1933 12.5267 63.6 11.0133 65 9.72C65.0267 9.69333 65.0533 9.67333 65.08 9.66C65.0533 9.28667 65.0267 8.93333 65 8.6C63.9467 8.52 62.7533 8.42667 61.42 8.32C60.86 8.22667 60.5733 7.99333 60.56 7.62C60.5867 7.11333 60.92 6.85333 61.56 6.84C62.0267 6.84 63.1333 6.9 64.88 7.02C64.76 5.31333 64.68 4.10667 64.64 3.4C64.08 3.54667 63.5867 3.68 63.16 3.8C62.44 4 61.9067 4.1 61.56 4.1C61.12 4.1 60.8867 3.89333 60.86 3.48C60.8867 3.09333 61.1 2.83333 61.5 2.7C65.4733 1.62 68.02 1.07333 69.14 1.06ZM71.96 3.64C72.4667 3.64 72.7533 3.9 72.82 4.42C73.0733 7.48667 73.3333 10.4467 73.6 13.3C73.64 13.6467 73.6667 13.9133 73.68 14.1C73.6533 14.54 73.42 14.7733 72.98 14.8C72.5133 14.7867 72.2267 14.5533 72.12 14.1C71.6533 8.66 71.3933 5.40667 71.34 4.34C71.3533 3.88667 71.56 3.65333 71.96 3.64ZM76.1 0.899999C76.46 0.899999 76.6933 1.13333 76.8 1.6V15.82C76.7733 16.5267 76.5667 16.8933 76.18 16.92C75.7 16.8933 75.44 16.6333 75.4 16.14C75.4133 12.2467 75.4267 9.31333 75.44 7.34C75.4533 5.32667 75.46 4.03333 75.46 3.46C75.4733 2.58 75.48 1.93333 75.48 1.52C75.48 1.10667 75.6867 0.899999 76.1 0.899999Z" fill="white"/>
</svg>
